<?xml version="1.0" standalone="no"?>
<!DOCTYPE svg PUBLIC "-//W3C//DTD SVG 20010904//EN"
 "http://www.w3.org/TR/2001/REC-SVG-20010904/DTD/svg10.dtd">
<svg version="1.0" xmlns="http://www.w3.org/2000/svg"
 width="193.000000pt" height="193.000000pt" viewBox="0 0 193.000000 193.000000"
 preserveAspectRatio="xMidYMid meet">
<metadata>
Created by potrace 1.11, written by Peter Selinger 2001-2013
</metadata>
<g transform="translate(0.000000,193.000000) scale(0.100000,-0.100000)"
fill="#000000" stroke="none">
<path d="M1563 1840 c-110 -55 -174 -114 -218 -202 -19 -39 -35 -79 -35 -90 0
-10 -17 -33 -37 -51 -34 -30 -113 -140 -113 -158 0 -5 32 -18 70 -30 50 -15
70 -26 70 -37 0 -39 27 -64 94 -93 l69 -29 35 22 35 21 57 -31 c32 -18 62 -32
68 -32 14 0 42 120 42 183 0 40 8 72 31 122 54 114 50 223 -13 383 -30 74 -47
76 -155 22z m31 -226 c22 -21 20 -50 -4 -74 -24 -24 -38 -25 -68 -4 -41 29
-19 94 33 94 13 0 31 -7 39 -16z"/>
<path d="M153 1368 c13 -32 450 -998 469 -1037 12 -24 21 -50 21 -58 0 -7 4
-13 8 -13 4 0 11 -9 14 -20 6 -19 15 -20 225 -20 l219 0 55 116 c31 63 56 117
56 120 0 2 -17 11 -37 19 -21 9 -48 26 -61 38 -28 25 -62 88 -63 114 0 22 -55
67 -72 60 -6 -3 -27 -44 -46 -91 -19 -48 -38 -83 -41 -79 -4 5 -62 136 -130
293 -67 157 -134 306 -148 333 -32 60 -104 127 -172 162 -88 45 -309 92 -297
63z"/>
<path d="M1312 1130 c-24 -43 -85 -89 -144 -111 -21 -7 -38 -16 -38 -21 0 -4
-7 -5 -15 -2 -8 4 -13 10 -10 14 3 5 -11 14 -31 20 -120 40 -229 -91 -164
-198 22 -36 74 -72 104 -72 11 0 32 -12 48 -27 15 -14 38 -27 50 -29 34 -4 34
-4 19 -13 -24 -16 -4 -80 39 -123 33 -34 43 -38 86 -38 54 0 105 25 124 60 9
16 15 18 30 10 30 -16 92 -12 127 10 84 51 84 179 0 230 -33 21 -63 26 -69 12
-1 -4 -11 0 -20 10 -10 10 -14 18 -10 18 5 0 0 26 -11 58 -19 56 -20 140 -2
184 5 13 -2 21 -30 32 -52 22 -57 21 -83 -24z"/>
<path d="M1509 213 c-13 -16 -12 -17 4 -4 16 13 21 21 13 21 -2 0 -10 -8 -17
-17z"/>
<path d="M534 192 c4 -3 14 -7 22 -8 9 -1 13 0 10 4 -4 3 -14 7 -22 8 -9 1
-13 0 -10 -4z"/>
<path d="M655 190 c-3 -5 -1 -10 4 -10 6 0 11 5 11 10 0 6 -2 10 -4 10 -3 0
-8 -4 -11 -10z"/>
<path d="M695 190 c-3 -5 -1 -10 4 -10 6 0 11 5 11 10 0 6 -2 10 -4 10 -3 0
-8 -4 -11 -10z"/>
<path d="M876 192 c-3 -5 1 -9 9 -9 8 0 12 4 9 9 -3 4 -7 8 -9 8 -2 0 -6 -4
-9 -8z"/>
<path d="M1133 179 c-2 -23 3 -25 10 -4 4 8 3 16 -1 19 -4 3 -9 -4 -9 -15z"/>
<path d="M839 163 c-12 -16 -12 -17 2 -6 9 7 20 9 24 5 5 -4 5 -1 1 6 -9 16
-11 15 -27 -5z"/>
<path d="M926 172 c-3 -5 1 -9 9 -9 8 0 12 4 9 9 -3 4 -7 8 -9 8 -2 0 -6 -4
-9 -8z"/>
<path d="M900 156 c0 -2 8 -10 18 -17 15 -13 16 -12 3 4 -13 16 -21 21 -21 13z"/>
<path d="M1190 155 c0 -7 30 -13 34 -7 3 4 -4 9 -15 9 -10 1 -19 0 -19 -2z"/>
<path d="M995 141 c-3 -5 -2 -12 3 -15 5 -3 9 1 9 9 0 17 -3 19 -12 6z"/>
<path d="M445 130 c-3 -6 1 -7 9 -4 18 7 21 14 7 14 -6 0 -13 -4 -16 -10z"/>
<path d="M593 125 c0 -8 4 -12 9 -9 5 3 6 10 3 15 -9 13 -12 11 -12 -6z"/>
<path d="M735 121 c-3 -5 -2 -12 3 -15 5 -3 9 1 9 9 0 17 -3 19 -12 6z"/>
<path d="M790 127 c0 -2 6 -10 14 -16 11 -9 16 -9 22 1 4 7 4 10 -1 6 -4 -4
-14 -3 -22 3 -7 6 -13 9 -13 6z"/>
<path d="M693 99 c-2 -23 3 -25 10 -4 4 8 3 16 -1 19 -4 3 -9 -4 -9 -15z"/>
<path d="M855 110 c3 -5 8 -10 11 -10 2 0 4 5 4 10 0 6 -5 10 -11 10 -5 0 -7
-4 -4 -10z"/>
<path d="M635 91 c-3 -5 -2 -12 3 -15 5 -3 9 1 9 9 0 17 -3 19 -12 6z"/>
</g>
</svg>
